<svg id="Layer_1" data-name="Layer 1" xmlns="http://www.w3.org/2000/svg" viewBox="0 0 47.82 22.33"><defs><style>.cls-1{fill:#64626b;}</style></defs><title>dark</title><path class="cls-1" d="M12.94,19A8,8,0,0,1,5.25,13.2a.72.72,0,0,1,.21-.7.67.67,0,0,1,.5-.23l.19,0a6.23,6.23,0,0,0,1.76.27A6.57,6.57,0,0,0,14.47,6a6.1,6.1,0,0,0-.27-1.74.73.73,0,0,1,.2-.7.7.7,0,0,1,.51-.24l.19,0A8,8,0,0,1,12.94,19Zm-5.8-4.84A6.59,6.59,0,0,0,19.51,11a6.62,6.62,0,0,0-3.43-5.8l-.23-.12,0,.25c0,.21,0,.41,0,.63a8,8,0,0,1-8,8c-.19,0-.41,0-.64,0H7Z"/><path class="cls-1" d="M38,15.78a.45.45,0,0,1-.47-.47V14a.46.46,0,0,1,.47-.47.45.45,0,0,1,.47.47v1.28A.45.45,0,0,1,38,15.78Zm2.94-1.21a.45.45,0,0,1-.33-.14l-.9-.89a.47.47,0,0,1-.14-.33.45.45,0,0,1,.14-.33.46.46,0,0,1,.66,0l.9.89a.46.46,0,0,1,0,.66A.5.5,0,0,1,40.92,14.57Zm-5.87,0a.43.43,0,0,1-.33-.14.45.45,0,0,1,0-.66l.89-.89a.46.46,0,0,1,.66,0,.45.45,0,0,1,.14.33.47.47,0,0,1-.14.33l-.89.89A.47.47,0,0,1,35.05,14.57ZM38,13.23a2.07,2.07,0,1,1,2.07-2.06A2.06,2.06,0,0,1,38,13.23ZM38,10a1.13,1.13,0,1,0,1.13,1.13A1.13,1.13,0,0,0,38,10Zm2.87,1.6a.45.45,0,0,1-.47-.47.45.45,0,0,1,.47-.47h1.28a.45.45,0,0,1,.47.47.46.46,0,0,1-.47.47Zm-7,0a.45.45,0,0,1-.47-.47.45.45,0,0,1,.47-.47h1.27a.45.45,0,0,1,.47.47.45.45,0,0,1-.47.47ZM40,9.6a.48.48,0,0,1-.47-.47.45.45,0,0,1,.14-.33l.9-.9a.45.45,0,0,1,.33-.14.48.48,0,0,1,.47.47.45.45,0,0,1-.14.33l-.9.9A.5.5,0,0,1,40,9.6Zm-4.08,0a.47.47,0,0,1-.33-.14l-.89-.9a.45.45,0,0,1,0-.66.46.46,0,0,1,.66,0l.89.9a.45.45,0,0,1,.14.33.47.47,0,0,1-.14.33A.45.45,0,0,1,35.94,9.6Zm2-.83a.46.46,0,0,1-.47-.47V7A.45.45,0,0,1,38,6.55a.45.45,0,0,1,.47.47V8.3A.45.45,0,0,1,38,8.77Z"/><path class="cls-1" d="M22,21.29a.58.58,0,0,1-.3-.09.62.62,0,0,1-.28-.36.6.6,0,0,1,.07-.45L33,1.33A.58.58,0,0,1,33.45,1a.62.62,0,0,1,.32.09.58.58,0,0,1,.27.36.6.6,0,0,1-.07.45L22.54,21a.63.63,0,0,1-.36.27Z"/></svg>