<svg id="Layer_1" data-name="Layer 1" xmlns="http://www.w3.org/2000/svg" viewBox="0 0 47.82 22.33"><defs><style>.cls-1{fill:#64626b;}</style></defs><title>dark-light</title><path class="cls-1" d="M8.23,18.3A8.16,8.16,0,0,1,.4,12.39a.85.85,0,0,1,.24-.83.82.82,0,0,1,.6-.28.91.91,0,0,1,.23,0,6.07,6.07,0,0,0,1.72.27A6.43,6.43,0,0,0,9.62,5.16a5.9,5.9,0,0,0-.27-1.71.84.84,0,0,1,.24-.84.83.83,0,0,1,.6-.27l.23,0A8.12,8.12,0,0,1,8.23,18.3Zm-5.68-5a6.44,6.44,0,1,0,8.74-8.74c0,.21,0,.42,0,.64a8.12,8.12,0,0,1-8.11,8.11Z"/><path class="cls-1" d="M38.27,19.78a.85.85,0,0,1-.88-.89V16.51a.88.88,0,0,1,1.76,0v2.38A.85.85,0,0,1,38.27,19.78Zm5.49-2.27a.84.84,0,0,1-.62-.27l-1.67-1.67a.87.87,0,0,1,0-1.24.87.87,0,0,1,1.24,0L44.38,16a.86.86,0,0,1,0,1.23A1,1,0,0,1,43.76,17.51Zm-11,0a.79.79,0,0,1-.61-.27.84.84,0,0,1,0-1.23l1.67-1.68a.91.91,0,0,1,.62-.26.87.87,0,0,1,.61.26.85.85,0,0,1,0,1.24l-1.67,1.67A.83.83,0,0,1,32.77,17.51ZM38.27,15a3.87,3.87,0,1,1,3.86-3.87A3.88,3.88,0,0,1,38.27,15Zm0-6a2.11,2.11,0,1,0,2.1,2.1A2.11,2.11,0,0,0,38.27,9Zm5.37,3a.88.88,0,1,1,0-1.76H46A.88.88,0,1,1,46,12ZM30.51,12a.88.88,0,1,1,0-1.76h2.38a.88.88,0,1,1,0,1.76ZM42.09,8.19a.83.83,0,0,1-.62-.26.87.87,0,0,1,0-1.24L43.14,5a.88.88,0,1,1,1.24,1.24L42.71,7.93A.94.94,0,0,1,42.09,8.19Zm-7.64,0a.82.82,0,0,1-.62-.26L32.16,6.26a.86.86,0,0,1,0-1.24.83.83,0,0,1,.61-.26.87.87,0,0,1,.62.26l1.67,1.67a.85.85,0,0,1,0,1.24A.81.81,0,0,1,34.45,8.19Zm3.82-1.55a.84.84,0,0,1-.88-.88V3.37a.88.88,0,1,1,1.76,0V5.76A.84.84,0,0,1,38.27,6.64Z"/><path class="cls-1" d="M17.31,21.25a.83.83,0,0,1-.44-.13.85.85,0,0,1-.3-1.2L28,.86a.88.88,0,0,1,.74-.43.94.94,0,0,1,.46.13.87.87,0,0,1,.3,1.2L18.07,20.82a.86.86,0,0,1-.54.4Z"/></svg>