<svg id="Layer_1" data-name="Layer 1" xmlns="http://www.w3.org/2000/svg" viewBox="0 0 47.82 22.33"><defs><style>.cls-1{fill:#64626b;}</style></defs><title>light</title><path class="cls-1" d="M9.17,15.67a4.6,4.6,0,0,1-4.45-3.29.46.46,0,0,1,.14-.47.44.44,0,0,1,.33-.16l.13,0a3.85,3.85,0,0,0,1,.14A3.63,3.63,0,0,0,9.88,8.25a3.06,3.06,0,0,0-.16-1,.48.48,0,0,1,.13-.47.47.47,0,0,1,.34-.16h.13a4.58,4.58,0,0,1-1.15,9ZM5.94,12.86a3.64,3.64,0,1,0,4.89-5v.36A4.57,4.57,0,0,1,6.3,12.86Z"/><path class="cls-1" d="M34.7,19.67a.7.7,0,0,1-.75-.74l0-2.38a.69.69,0,0,1,.73-.75.71.71,0,0,1,.75.73l0,2.39A.71.71,0,0,1,34.7,19.67Zm5.47-2.32a.69.69,0,0,1-.52-.22L38,15.47a.78.78,0,0,1-.23-.51.74.74,0,0,1,.22-.52.78.78,0,0,1,.52-.23.76.76,0,0,1,.52.22l1.68,1.66a.7.7,0,0,1,0,1A.76.76,0,0,1,40.17,17.35Zm-11,.1a.67.67,0,0,1-.52-.22.78.78,0,0,1-.23-.51.73.73,0,0,1,.22-.52l1.66-1.69a.7.7,0,0,1,1,0,.7.7,0,0,1,0,1L29.7,17.22A.66.66,0,0,1,29.18,17.45Zm5.47-2.56a3.73,3.73,0,1,1,3.69-3.76A3.73,3.73,0,0,1,34.65,14.89Zm0-6a2.25,2.25,0,1,0,2.26,2.23A2.25,2.25,0,0,0,34.6,8.92ZM40,11.86a.71.71,0,0,1-.75-.74.7.7,0,0,1,.74-.74l2.38,0a.74.74,0,1,1,0,1.47ZM26.86,12a.7.7,0,0,1-.74-.74.69.69,0,0,1,.73-.74l2.39,0a.74.74,0,1,1,0,1.47ZM38.41,8.05a.69.69,0,0,1-.52-.22.72.72,0,0,1-.22-.51.68.68,0,0,1,.21-.52l1.66-1.69a.7.7,0,0,1,1,0,.7.7,0,0,1,.23.52.76.76,0,0,1-.22.52L38.93,7.82A.76.76,0,0,1,38.41,8.05Zm-7.64.07a.69.69,0,0,1-.52-.22L28.56,6.25a.76.76,0,0,1-.22-.52.73.73,0,0,1,.21-.52.71.71,0,0,1,1,0l1.68,1.66a.69.69,0,0,1,.23.51.74.74,0,0,1-.22.52A.64.64,0,0,1,30.77,8.12Zm3.81-1.59a.7.7,0,0,1-.75-.73l0-2.39a.7.7,0,0,1,.73-.75.71.71,0,0,1,.75.74l0,2.38A.7.7,0,0,1,34.58,6.53Z"/><path class="cls-1" d="M13.75,21.34a.52.52,0,0,1-.3-.09.59.59,0,0,1-.28-.36.6.6,0,0,1,.07-.45L24.5,1.28A.58.58,0,0,1,25,1a.61.61,0,0,1,.31.09.57.57,0,0,1,.21.8L14.26,21a.58.58,0,0,1-.36.28A.39.39,0,0,1,13.75,21.34Z"/></svg>