<svg xmlns="http://www.w3.org/2000/svg" viewBox="0 0 435.6 68.06"><defs><style>.cls-1{fill:#5f5f6e;}.cls-2{fill:#a30b31;}.cls-3{fill:none;}.cls-4{fill:#fff;}</style></defs><title>logo-1</title><g id="Layer_1" data-name="Layer 1"><path class="cls-1" d="M44,7.87,35.39,50.76H26.84l.63-3.12a13.64,13.64,0,0,1-9.54,3.58,13.68,13.68,0,0,1-6.7-1.67,12.54,12.54,0,0,1-4.89-4.83,14.64,14.64,0,0,1-1.82-7.43A18.9,18.9,0,0,1,6.8,28,17,17,0,0,1,13,21.54a16.63,16.63,0,0,1,8.67-2.34,14.47,14.47,0,0,1,6,1.15,9.41,9.41,0,0,1,4.08,3.41L34.93,7.87Zm-18.5,34.6a8.9,8.9,0,0,0,3.24-3.62,11.73,11.73,0,0,0,1.15-5.32,6.72,6.72,0,0,0-1.88-5,7.13,7.13,0,0,0-5.23-1.85,8.69,8.69,0,0,0-8,4.92,11.73,11.73,0,0,0-1.15,5.32,6.72,6.72,0,0,0,1.88,5,7.13,7.13,0,0,0,5.23,1.85A8.83,8.83,0,0,0,25.45,42.47Z"/><path class="cls-1" d="M49.72,49.49a12.88,12.88,0,0,1-5.49-4.89,13.67,13.67,0,0,1-1.94-7.31A17.82,17.82,0,0,1,44.72,28a17.54,17.54,0,0,1,6.71-6.47,19.57,19.57,0,0,1,9.65-2.37,18.49,18.49,0,0,1,8.27,1.73,13,13,0,0,1,5.46,4.89,13.67,13.67,0,0,1,1.94,7.31,18,18,0,0,1-2.4,9.25,17.19,17.19,0,0,1-6.71,6.47A19.74,19.74,0,0,1,58,51.22,18.53,18.53,0,0,1,49.72,49.49Zm13.5-7a8.83,8.83,0,0,0,3.24-3.62,11.73,11.73,0,0,0,1.16-5.32,6.79,6.79,0,0,0-1.86-5,7,7,0,0,0-5.2-1.85,8.69,8.69,0,0,0-8,4.92,11.73,11.73,0,0,0-1.15,5.32,6.72,6.72,0,0,0,1.88,5,7.13,7.13,0,0,0,5.23,1.85A8.72,8.72,0,0,0,63.22,42.47Z"/><path class="cls-1" d="M103.18,20.18a20.59,20.59,0,0,1,6.73-1l-1.62,8.32c-1.08-.08-1.77-.11-2.08-.11a10,10,0,0,0-6.56,2,10.57,10.57,0,0,0-3.33,6.3l-3,15h-9l6.19-31.1H99l-.75,3.7A11.71,11.71,0,0,1,103.18,20.18Z"/><path class="cls-1" d="M113,19.66h9l-6.19,31.1h-9Zm2.22-5.7a4.34,4.34,0,0,1-1.47-3.32,5,5,0,0,1,1.64-3.84,6.1,6.1,0,0,1,4.31-1.54,5.66,5.66,0,0,1,3.85,1.3A4.13,4.13,0,0,1,125,9.77a5.18,5.18,0,0,1-1.68,4A6.16,6.16,0,0,1,119,15.32,5.36,5.36,0,0,1,115.17,14Z"/><path class="cls-1" d="M160.34,19.66l-5.14,25.9q-1.74,8.79-6.68,12.83t-13.21,4a31.36,31.36,0,0,1-8.29-1,19.43,19.43,0,0,1-6.51-3.07l4.28-6.53a13.4,13.4,0,0,0,4.77,2.46,20.76,20.76,0,0,0,6.16.89q4.56,0,6.93-2a10.47,10.47,0,0,0,3.24-6l.23-1.33a13.43,13.43,0,0,1-9.48,3.47,15.17,15.17,0,0,1-7-1.59,12.25,12.25,0,0,1-5-4.54,13,13,0,0,1-1.82-6.94,16.73,16.73,0,0,1,2.26-8.61,16.47,16.47,0,0,1,6.21-6.13,17.66,17.66,0,0,1,8.88-2.25,14.17,14.17,0,0,1,6.38,1.36,8.91,8.91,0,0,1,4.14,4.19l1-5.09Zm-14.8,19.65a8.82,8.82,0,0,0,2.55-6.53,5.71,5.71,0,0,0-1.85-4.48,7.48,7.48,0,0,0-5.15-1.65,8.93,8.93,0,0,0-6.56,2.55A8.79,8.79,0,0,0,132,35.73a5.59,5.59,0,0,0,1.91,4.48,7.67,7.67,0,0,0,5.2,1.65A8.74,8.74,0,0,0,145.54,39.31Z"/><path class="cls-1" d="M193.13,22q3.08,2.78,3.07,7.86a17.19,17.19,0,0,1-.41,3.7l-3.47,17.23h-9l3.35-16.65a9.55,9.55,0,0,0,.23-2.14,4.87,4.87,0,0,0-1.33-3.7,5.62,5.62,0,0,0-4-1.27,8.42,8.42,0,0,0-5.75,2,10.38,10.38,0,0,0-3.09,6l-3.12,15.78h-9l8.55-42.89h9l-2.89,14.62a14.57,14.57,0,0,1,9.6-3.29A11.82,11.82,0,0,1,193.13,22Z"/><path class="cls-1" d="M210.59,39.78a5.37,5.37,0,0,0-.11,1.27q0,3,3.29,3A7.08,7.08,0,0,0,217.41,43l1.33,6.41A14.5,14.5,0,0,1,211,51.22a10.4,10.4,0,0,1-7.06-2.31,8,8,0,0,1-2.66-6.36,15.59,15.59,0,0,1,.29-2.72l2.49-12.54h-4.8l1.39-6.94h4.8l1.5-7.57h9l-1.5,7.57h7.74l-1.39,6.94h-7.74Z"/><path class="cls-2" d="M260.81,21.94c2,1.83,3.06,4.45,3.06,7.84a17.43,17.43,0,0,1-.4,3.75L260,50.76h-9l3.35-16.65a9,9,0,0,0,.24-2.14,4.91,4.91,0,0,0-1.33-3.7,5.62,5.62,0,0,0-4-1.27,8.45,8.45,0,0,0-5.76,2,10.38,10.38,0,0,0-3.09,6l-3.12,15.78h-9l6.19-31.1H243L242.31,23a14.58,14.58,0,0,1,10.23-3.81A11.93,11.93,0,0,1,260.81,21.94Z"/><path class="cls-2" d="M274.05,49.49a12.88,12.88,0,0,1-5.49-4.89,13.67,13.67,0,0,1-1.94-7.31A17.82,17.82,0,0,1,269.05,28a17.54,17.54,0,0,1,6.71-6.47,19.57,19.57,0,0,1,9.65-2.37,18.49,18.49,0,0,1,8.27,1.73,13,13,0,0,1,5.46,4.89,13.67,13.67,0,0,1,1.94,7.31,18,18,0,0,1-2.4,9.25A17.13,17.13,0,0,1,292,48.85a19.72,19.72,0,0,1-9.68,2.37A18.53,18.53,0,0,1,274.05,49.49Zm13.5-7a8.83,8.83,0,0,0,3.24-3.62A11.73,11.73,0,0,0,292,33.53a6.82,6.82,0,0,0-1.85-5,7.07,7.07,0,0,0-5.21-1.85,8.69,8.69,0,0,0-8,4.92,11.73,11.73,0,0,0-1.15,5.32,6.72,6.72,0,0,0,1.88,5,7.13,7.13,0,0,0,5.23,1.85A8.72,8.72,0,0,0,287.55,42.47Z"/><path class="cls-2" d="M357.67,19.66,340.5,50.76h-8.9L328,31.39,317.32,50.76h-8.79L303,19.66h8.21l3.41,20.93,11.68-20.93h7.74l3.53,20.93,11.56-20.93Z"/><rect class="cls-2" x="367.77" y="-0.27" width="68.25" height="68.25" rx="10.12" ry="10.12"/><path class="cls-3" d="M378.32,35a11.33,11.33,0,0,1,.51-2.49H367.77v3.59h10.51C378.28,35.74,378.29,35.37,378.32,35Z"/><path class="cls-3" d="M378.67,39h-10.9v3.59h13.05A8.44,8.44,0,0,1,378.67,39Z"/><path class="cls-3" d="M384.61,26H367.77v3.59h12.58A13.34,13.34,0,0,1,384.61,26Z"/><path class="cls-3" d="M423.51,25.73a2.08,2.08,0,1,0,1.1,2.72A2.07,2.07,0,0,0,423.51,25.73Z"/><path class="cls-4" d="M394.79,50c-.1,0-1.63,1.9-7.06,3.18-1,.24-1.18,1.46-.84,2.47a1.76,1.76,0,0,0,2.15,1.4A20.85,20.85,0,0,0,392.79,56C399.93,52.75,396.32,50.12,394.79,50Z"/><path class="cls-4" d="M402.09,21.21a34.93,34.93,0,0,0,7.2,2.51c.58.15,1.16.28,1.74.42l.15-.19c-.69-.76-1.37-1.53-2.07-2.28-1.67-1.79-2-2.53-3.72-4.26-.59-.59-4.44-3.89-6-1.84a2.19,2.19,0,0,0-.3,2.33A6.08,6.08,0,0,0,402.09,21.21Z"/><path class="cls-4" d="M429.35,30.7a15.75,15.75,0,0,0-9.79-10.11c-5-1.89-7.68-9.87-12-10-1.2,0-2.34.23-2.34,1.59,0,4.33,4.23,6.91,6.14,8.77a35.35,35.35,0,0,1,2.51,2.68,2.3,2.3,0,0,1,0,2.91,2.33,2.33,0,0,1-2.6,1,8,8,0,0,1-1.79-.54c-1.14-.51-2.26-1.07-3.37-1.64a20.93,20.93,0,0,0-9.89-2.35H367.77V26h16.84a13.34,13.34,0,0,0-4.26,3.59H367.77V32.5h11.06a11.33,11.33,0,0,0-.51,2.49c0,.38,0,.75,0,1.1H367.77V39h10.9a8.44,8.44,0,0,0,2.15,3.59H367.77v2.93h18.48a14.14,14.14,0,0,0,1.61.33c5,.7,11,3.5,12,6.07.07.18.16.34.24.51A2.22,2.22,0,0,0,403,53.9c1.22-.28,2.43-.58,3.63-.92a20.34,20.34,0,0,1,8.45-.81c1.52.22,3,.48,4.53.77a3.52,3.52,0,0,0,2.9-.59,1.55,1.55,0,0,0,.25-2.6,4.7,4.7,0,0,0-3.44-1.62,65.7,65.7,0,0,0-6.73.22c-2.49.22-5,.65-7.44,1-.82.11-1,0-1-.85,0-.58.06-1.15.1-1.73.12-1.83.4-3.65.34-5.47a10.44,10.44,0,0,0-4.29-8.36c-.74-.56-1.59-1-2.49-1.56,2.93.28,5.84.9,7.4,3.25,2,2.93,2.09,6.85,1.79,10.36,0,.27,0,.53-.05.8a.86.86,0,0,0,.23,0l.88-.41a21.13,21.13,0,0,0,7-4.83,34.43,34.43,0,0,0,2.19-3,5,5,0,0,1,3.68-2.35c1.15-.12,2.31-.16,3.47-.27a20.19,20.19,0,0,0,2.81-.37A2.93,2.93,0,0,0,429.35,30.7Zm-4.74-2.25a2.08,2.08,0,1,1-1.1-2.72A2.08,2.08,0,0,1,424.61,28.45Z"/></g></svg>