<svg xmlns="http://www.w3.org/2000/svg" viewBox="0 0 479.86 70.87"><defs><style>.cls-1{fill:#5f5f6e;}.cls-2{fill:#a30b31;}</style></defs><title>logo</title><g id="Layer_1" data-name="Layer 1"><path class="cls-1" d="M43.12,9.69,34.26,54.12H25.39l.66-3.23a14.14,14.14,0,0,1-9.88,3.71,14.19,14.19,0,0,1-6.94-1.74,12.93,12.93,0,0,1-5.06-5,15.06,15.06,0,0,1-1.89-7.69,19.5,19.5,0,0,1,2.37-9.61,17.32,17.32,0,0,1,15.42-9.13,15.09,15.09,0,0,1,6.19,1.19,9.7,9.7,0,0,1,4.22,3.54l3.3-16.47ZM24,45.53a9.18,9.18,0,0,0,3.35-3.75,12.1,12.1,0,0,0,1.2-5.5,7,7,0,0,0-2-5.21,7.38,7.38,0,0,0-5.42-1.92,9,9,0,0,0-8.26,5.09,12.14,12.14,0,0,0-1.2,5.51,7,7,0,0,0,2,5.21,7.38,7.38,0,0,0,5.42,1.91A9.16,9.16,0,0,0,24,45.53Z"/><path class="cls-1" d="M49.1,52.8a13.36,13.36,0,0,1-5.69-5.06,14.13,14.13,0,0,1-2-7.57,18.42,18.42,0,0,1,2.52-9.58,18.08,18.08,0,0,1,6.95-6.71,20.2,20.2,0,0,1,10-2.45,19.32,19.32,0,0,1,8.57,1.79,13.44,13.44,0,0,1,5.65,5.06,14.16,14.16,0,0,1,2,7.58,18.71,18.71,0,0,1-2.48,9.58,17.85,17.85,0,0,1-7,6.7,20.42,20.42,0,0,1-10,2.46A19.19,19.19,0,0,1,49.1,52.8Zm14-7.27a9.11,9.11,0,0,0,3.35-3.75,12.1,12.1,0,0,0,1.2-5.5,7,7,0,0,0-1.92-5.21,7.25,7.25,0,0,0-5.38-1.92,9,9,0,0,0-8.27,5.09,12.14,12.14,0,0,0-1.19,5.51A7,7,0,0,0,52.81,45a7.38,7.38,0,0,0,5.42,1.91A9,9,0,0,0,63.08,45.53Z"/><path class="cls-1" d="M104.46,22.44a21.78,21.78,0,0,1,7-1l-1.68,8.62q-1.68-.12-2.16-.12A10.37,10.37,0,0,0,100.81,32a10.9,10.9,0,0,0-3.44,6.53L94.25,54.12H84.91l6.41-32.21h8.86l-.78,3.83A12.11,12.11,0,0,1,104.46,22.44Z"/><path class="cls-1" d="M114.58,21.91h9.28l-6.41,32.21h-9.28Zm2.3-5.9a4.53,4.53,0,0,1-1.52-3.44,5.25,5.25,0,0,1,1.7-4A6.34,6.34,0,0,1,121.53,7a5.84,5.84,0,0,1,4,1.34A4.29,4.29,0,0,1,127,11.67a5.4,5.4,0,0,1-1.73,4.16,6.4,6.4,0,0,1-4.49,1.58A5.57,5.57,0,0,1,116.88,16Z"/><path class="cls-1" d="M163.67,21.91l-5.33,26.82q-1.8,9.1-6.91,13.29t-13.69,4.19a32.75,32.75,0,0,1-8.59-1.07A20,20,0,0,1,122.42,62l4.43-6.76a13.93,13.93,0,0,0,4.94,2.54,21.52,21.52,0,0,0,6.37.93c3.16,0,5.55-.69,7.19-2.07a10.85,10.85,0,0,0,3.35-6.25l.24-1.38a13.93,13.93,0,0,1-9.82,3.59,15.8,15.8,0,0,1-7.24-1.64,12.58,12.58,0,0,1-5.12-4.71A13.35,13.35,0,0,1,124.87,39a17.37,17.37,0,0,1,2.34-8.92,17,17,0,0,1,6.43-6.35,18.23,18.23,0,0,1,9.19-2.33,14.87,14.87,0,0,1,6.62,1.4,9.29,9.29,0,0,1,4.28,4.34l1-5.26ZM148.34,42.26A9.13,9.13,0,0,0,151,35.5a5.88,5.88,0,0,0-1.92-4.64,7.72,7.72,0,0,0-5.33-1.71,9.23,9.23,0,0,0-6.79,2.64,9.08,9.08,0,0,0-2.67,6.76,5.81,5.81,0,0,0,2,4.64,7.94,7.94,0,0,0,5.39,1.71A9.06,9.06,0,0,0,148.34,42.26Z"/><path class="cls-1" d="M197.63,24.3c2.12,1.92,3.17,4.63,3.17,8.14a18.57,18.57,0,0,1-.41,3.84l-3.6,17.84h-9.34l3.48-17.25a10.13,10.13,0,0,0,.23-2.21,5,5,0,0,0-1.37-3.83,5.77,5.77,0,0,0-4.13-1.32,8.7,8.7,0,0,0-6,2.07,10.74,10.74,0,0,0-3.21,6.19l-3.23,16.35h-9.34l8.86-44.43h9.34l-3,15.15a15.07,15.07,0,0,1,9.94-3.41C192.66,21.43,195.51,22.38,197.63,24.3Z"/><path class="cls-1" d="M215.71,42.74a5.7,5.7,0,0,0-.12,1.32c0,2.08,1.14,3.11,3.42,3.11A7.45,7.45,0,0,0,222.78,46l1.38,6.64a15.13,15.13,0,0,1-8,1.92,10.71,10.71,0,0,1-7.3-2.4,8.25,8.25,0,0,1-2.76-6.58,15.77,15.77,0,0,1,.3-2.82l2.58-13h-5l1.43-7.19h5l1.56-7.84h9.34l-1.56,7.84h8l-1.44,7.19h-8Z"/><path class="cls-2" d="M267.72,24.27q3.18,2.85,3.18,8.11a18.2,18.2,0,0,1-.42,3.9l-3.6,17.84h-9.34L261,36.87a9.54,9.54,0,0,0,.24-2.21,5,5,0,0,0-1.38-3.83,5.77,5.77,0,0,0-4.13-1.32,8.72,8.72,0,0,0-6,2.07,10.73,10.73,0,0,0-3.2,6.19l-3.24,16.35H234l6.41-32.21h8.86l-.72,3.47a15.1,15.1,0,0,1,10.6-3.95A12.37,12.37,0,0,1,267.72,24.27Z"/><path class="cls-2" d="M281.44,52.8a13.42,13.42,0,0,1-5.69-5.06,14.12,14.12,0,0,1-2-7.57,18.42,18.42,0,0,1,2.51-9.58,18.08,18.08,0,0,1,6.95-6.71,20.21,20.21,0,0,1,10-2.45,19.31,19.31,0,0,1,8.56,1.79,13.52,13.52,0,0,1,5.66,5.06,14.25,14.25,0,0,1,2,7.58A18.71,18.71,0,0,1,307,45.44a17.85,17.85,0,0,1-6.95,6.7,20.42,20.42,0,0,1-10,2.46A19.19,19.19,0,0,1,281.44,52.8Zm14-7.27a9.11,9.11,0,0,0,3.35-3.75,12.1,12.1,0,0,0,1.2-5.5,7,7,0,0,0-1.91-5.21,7.29,7.29,0,0,0-5.39-1.92,9,9,0,0,0-8.27,5.09,12.27,12.27,0,0,0-1.19,5.51A7,7,0,0,0,285.15,45a7.39,7.39,0,0,0,5.42,1.91A9,9,0,0,0,295.42,45.53Z"/><path class="cls-2" d="M368,21.91,350.26,54.12H341l-3.71-20.06L326.25,54.12h-9.1l-5.69-32.21H320l3.54,21.67,12.09-21.67h8l3.66,21.67,12-21.67Z"/><path class="cls-2" d="M435.65,19.51c4,1.83,8.56,2.38,12.84,3a1.1,1.1,0,0,0,.51,0,.5.5,0,0,0,.3-.41c.06-.58-1.05-1.13-1.44-1.42l-2.05-1.6c-1.36-1.07-2.71-2.17-4-3.31-2.05-1.79-3.73-4.1-6.57-4.52a8.92,8.92,0,0,0-2.68,0,2.41,2.41,0,0,0-2,2.69C430.8,16.53,433.33,18.44,435.65,19.51Z"/><path class="cls-2" d="M420.35,60a2.58,2.58,0,0,0-1.33.12,2.38,2.38,0,0,0-.84.5c-.14.09-.29.16-.44.25l0,0a4.25,4.25,0,0,1-.52.27l0,0h0c-.24.14-.49.25-.75.37a25.82,25.82,0,0,1-2.53,1l-.66.21c-.32.1-.65.2-1,.28l-1,.24c-.32.08-.64.14-1,.2h0a4.23,4.23,0,0,0-.41.23,2.35,2.35,0,0,0-.57,3.27A2.32,2.32,0,0,0,411,68s0,0,0,0l.72-.07a24.71,24.71,0,0,0,7.54-2.18c.42-.19.84-.41,1.26-.64l.13-.08h0a2.45,2.45,0,0,0,.91-.53,2.56,2.56,0,0,0,.83-1.49A2.61,2.61,0,0,0,420.35,60Z"/><path class="cls-2" d="M477.44,28.8a7.83,7.83,0,0,0-.57-1.44,33.67,33.67,0,0,0-2.7-4.06,26.5,26.5,0,0,0-4.32-4.59,10.22,10.22,0,0,0-5.22-2.43h-.09l-.6-.08h0c-1.56-.2-6.61-.83-9.06-2.37-2.92-1.84-7.06-9.65-15.42-10.9-2.45-.37-3.18,2.3-2.55,4.69.46,1.71,1.94,3.07,3.26,4.16a40.56,40.56,0,0,0,5.48,3.71c2.71,1.57,5.74,2.74,7.8,5.19a3.16,3.16,0,0,1,.49.72,1.51,1.51,0,0,1-.06,1.18c-.79,1.89-3.09,2.47-4.94,2.57a15.35,15.35,0,0,1-4.71-.64c-3.22-.87-6.36-2-9.63-2.65a48.73,48.73,0,0,0-14.51-.75c-1.34.13-2.69.31-4,.53a7.6,7.6,0,0,0-1.09.28h-35.8l-2.31,4.19h31.63a24.25,24.25,0,0,0-2.86,3.06c-.44.61-.9,1.33-1.34,2.08H374l-2.31,4.2H399a4.85,4.85,0,0,0-.91,2.83,4.77,4.77,0,0,0,.61,2.31H368.86l-2.3,4.2H402a12.38,12.38,0,0,0,3.71,5.14H363.73l-2.31,4.2h53.67c4.42,1.27,8.46,5.18,11.3,8.59A22.44,22.44,0,0,1,428.71,66a22.7,22.7,0,0,1,3.41-2l1.14-.52.21-.08.79-.3.1,0,.33-.11c.3-.11.59-.2.89-.29l.61-.18.07,0,.86-.22.8-.18H438l.6-.11.69-.11c.38,0,.76-.1,1.15-.13h.19l.42,0c.14,0,.29,0,.43,0h.43l.9,0c.26,0,.51,0,.77,0h.2c.33,0,.64,0,1,.06s.57,0,.86.08h0a4.76,4.76,0,0,1,.61.07h0a7.94,7.94,0,0,1,.83.13,18.05,18.05,0,0,1,4.38,1.28l1.92.84a2.71,2.71,0,0,0,2.75-.17,2.76,2.76,0,0,0,.19-4.4l-.05,0-.73-.41c-2.59-1.38-5.61-1.8-8.48-2.26a28,28,0,0,0-4.28-.36,23.62,23.62,0,0,0-3.16.21,24,24,0,0,0-5.79,1.46A24.12,24.12,0,0,0,434.2,55c0-.31,0-.63,0-.94,0-.48,0-1,0-1.41a24.71,24.71,0,0,0-8.36-17.21h.68a23.68,23.68,0,0,1,3.55,2.3c4.49,3.49,7.26,9.11,7.52,16.79,4-.77,9.89-4.75,12.3-7.36,4.92-5.34,6.11-6.33,9.13-8.42,2.58-1.78,5.8-2.42,8.84-2.89,2.14-.33,4.43-.41,6.41-1.37S478.1,31.14,477.44,28.8Zm-10-.35a3.44,3.44,0,1,1,2.93-3.88A3.45,3.45,0,0,1,467.47,28.45Z"/></g></svg>