<svg xmlns="http://www.w3.org/2000/svg" viewBox="0 0 315.07 70.87"><defs><style>.cls-1{font-size:35.65px;font-family:Montserrat-BoldItalic, Montserrat;font-weight:700;font-style:italic;letter-spacing:-0.04em;}.cls-2{letter-spacing:-0.02em;}.cls-3{font-size:13.91px;letter-spacing:-0.02em;}.cls-4{letter-spacing:-0.04em;}.cls-5{letter-spacing:-0.04em;}.cls-6{letter-spacing:-0.03em;}.cls-7{letter-spacing:-0.04em;}.cls-8{letter-spacing:-0.02em;}.cls-9{letter-spacing:-0.04em;}.cls-10{letter-spacing:-0.05em;}.cls-11{fill:#fff;}</style></defs><title>logo_small</title><g id="Layer_1" data-name="Layer 1"><text class="cls-1" transform="translate(12.04 57.02)">d<tspan class="cls-2" x="23.4" y="0">o</tspan><tspan class="cls-3" x="46" y="0"> </tspan><tspan class="cls-4" x="49.66" y="0">r</tspan><tspan class="cls-5" x="63.51" y="0">i</tspan><tspan class="cls-6" x="72.96" y="0">g</tspan><tspan class="cls-7" x="96.71" y="0">h</tspan><tspan class="cls-8" x="119.99" y="0">t</tspan><tspan class="cls-3" x="134.78" y="0"> </tspan><tspan class="cls-9" x="138.44" y="0">n</tspan><tspan class="cls-10" x="161.74" y="0">o</tspan><tspan class="cls-8" x="183.38" y="0">w</tspan></text><path class="cls-11" d="M274.06,46.83l3.57-1.34a5.39,5.39,0,0,0,3.24-3.12A25,25,0,0,1,290,31.75a5.87,5.87,0,0,1,2.35-.84,7.8,7.8,0,0,0,5-2.23c1-1.12,1.58-2.61.55-3.73a80.79,80.79,0,0,0-7.11-6.73c-.65-.55-1.84-.42-2.75-.7a4.65,4.65,0,0,1-2-.94,25.68,25.68,0,0,0-12.67-7.74,16,16,0,0,0-8.63,0,25.6,25.6,0,0,0,16.77,11.67,16,16,0,0,1-1.58.89,15,15,0,0,1-14.64-1.31c-1.62-1.06-3.12-2.27-4.74-3.32a12.64,12.64,0,0,0-18.29,4.57c-.47.82-.88,1.67-1.31,2.51a7.88,7.88,0,0,1,0-2.43c.13-.79.32-1.57.47-2.34a5.63,5.63,0,0,0-6.4.86,5.84,5.84,0,0,0-1.87,6.6c1.2,3.5,3.94,4.65,7.39,4.32,2.1,6.51,5,9.18,11.59,10.8,7.82,1.92,12.51,7.75,12.5,15.64a1.34,1.34,0,0,0,1.12,1.48,28.8,28.8,0,0,1,9.52,5.6,12,12,0,0,0,1.31.83c.11-1.67.27-3,.26-4.3,0-1-.53-1.57-1.65-1.78a12.94,12.94,0,0,1-6.35-3.4,1.18,1.18,0,0,1-.26-1.79,15,15,0,0,0,1.67-11.16,18.27,18.27,0,0,0-7.12-11.12A19,19,0,0,1,274.06,46.83Zm-12.49,4a19,19,0,0,0-2-2.37,1.5,1.5,0,0,0-1.47-.13,4.16,4.16,0,0,1-4.67.77,4,4,0,0,0-5.51,2.5A19.4,19.4,0,0,0,261.57,50.86ZM273.89,3c0,.7,0,1.1,0,1.5.17,2.8.26,2.6,2.79,3.78,2.85,1.31,5.52,3,8.1,4.47A18.13,18.13,0,0,0,273.89,3Z"/><path d="M274.06,46.83a19,19,0,0,0-10.94-15.2,18.27,18.27,0,0,1,7.12,11.12,15,15,0,0,1-1.67,11.16,1.18,1.18,0,0,0,.26,1.79,12.94,12.94,0,0,0,6.35,3.4c1.12.21,1.65.78,1.65,1.78,0,1.32-.15,2.63-.26,4.3a12,12,0,0,1-1.31-.83,28.8,28.8,0,0,0-9.52-5.6,1.34,1.34,0,0,1-1.12-1.48c0-7.89-4.68-13.72-12.5-15.64-6.6-1.62-9.49-4.29-11.59-10.8-3.45.33-6.19-.82-7.39-4.32a5.84,5.84,0,0,1,1.87-6.6,5.63,5.63,0,0,1,6.4-.86c-.15.77-.34,1.55-.47,2.34a7.88,7.88,0,0,0,0,2.43c.43-.84.84-1.69,1.31-2.51a12.64,12.64,0,0,1,18.29-4.57c1.62,1.05,3.12,2.26,4.74,3.32a15,15,0,0,0,14.64,1.31,16,16,0,0,0,1.58-.89A25.6,25.6,0,0,1,264.69,8.81a16,16,0,0,1,8.63,0A25.68,25.68,0,0,1,286,16.58a4.65,4.65,0,0,0,2,.94c.91.28,2.1.15,2.75.7A80.79,80.79,0,0,1,297.88,25c1,1.12.46,2.61-.55,3.73a7.8,7.8,0,0,1-5,2.23,5.87,5.87,0,0,0-2.35.84,25,25,0,0,0-9.08,10.62,5.39,5.39,0,0,1-3.24,3.12Z"/><path d="M261.57,50.86a19.4,19.4,0,0,1-13.63.77,4,4,0,0,1,5.51-2.5,4.16,4.16,0,0,0,4.67-.77,1.5,1.5,0,0,1,1.47.13A19,19,0,0,1,261.57,50.86Z"/><path d="M273.89,3a18.13,18.13,0,0,1,10.9,9.75c-2.58-1.45-5.25-3.16-8.1-4.47-2.53-1.18-2.62-1-2.79-3.78C273.87,4.07,273.89,3.67,273.89,3Z"/></g></svg>