<svg xmlns="http://www.w3.org/2000/svg" viewBox="0 0 479.86 70.87"><defs><style>.cls-1{fill:#5f5f6e;}.cls-2{fill:#a30b31;}</style></defs><title>logo</title><g id="Layer_1" data-name="Layer 1"><path class="cls-1" d="M47.72,9.29l-8.56,42.9H30.61l.63-3.13a13.65,13.65,0,0,1-9.53,3.59A13.72,13.72,0,0,1,15,51a12.54,12.54,0,0,1-4.89-4.83,14.6,14.6,0,0,1-1.82-7.42,18.78,18.78,0,0,1,2.29-9.28A16.83,16.83,0,0,1,16.79,23a16.63,16.63,0,0,1,8.67-2.34,14.52,14.52,0,0,1,6,1.16,9.38,9.38,0,0,1,4.07,3.41L38.7,9.29Zm-18.5,34.6a8.8,8.8,0,0,0,3.24-3.61A11.76,11.76,0,0,0,33.61,35a6.74,6.74,0,0,0-1.87-5,7.17,7.17,0,0,0-5.24-1.85,8.74,8.74,0,0,0-4.74,1.3A8.85,8.85,0,0,0,18.53,33a11.63,11.63,0,0,0-1.16,5.32,6.74,6.74,0,0,0,1.88,5,7.13,7.13,0,0,0,5.23,1.85A8.74,8.74,0,0,0,29.22,43.89Z"/><path class="cls-1" d="M53.5,50.91A12.83,12.83,0,0,1,48,46a13.69,13.69,0,0,1-1.93-7.31,17.88,17.88,0,0,1,2.42-9.25A17.49,17.49,0,0,1,55.2,23a19.57,19.57,0,0,1,9.65-2.37,18.49,18.49,0,0,1,8.27,1.74,12.9,12.9,0,0,1,5.46,4.88,13.6,13.6,0,0,1,1.94,7.31,18,18,0,0,1-2.4,9.25,17.19,17.19,0,0,1-6.7,6.48,19.75,19.75,0,0,1-9.69,2.37A18.46,18.46,0,0,1,53.5,50.91Zm13.49-7a8.8,8.8,0,0,0,3.24-3.61A11.76,11.76,0,0,0,71.39,35a6.8,6.8,0,0,0-1.85-5,7.07,7.07,0,0,0-5.21-1.85,8.74,8.74,0,0,0-4.74,1.3A8.85,8.85,0,0,0,56.36,33a11.76,11.76,0,0,0-1.16,5.32,6.74,6.74,0,0,0,1.88,5,7.15,7.15,0,0,0,5.23,1.85A8.59,8.59,0,0,0,67,43.89Z"/><path class="cls-1" d="M107,21.6a20.9,20.9,0,0,1,6.73-1L112.06,29c-1.07-.08-1.77-.12-2.08-.12a10,10,0,0,0-6.56,2,10.56,10.56,0,0,0-3.32,6.3l-3,15h-9l6.19-31.11h8.55l-.75,3.7A11.8,11.8,0,0,1,107,21.6Z"/><path class="cls-1" d="M116.72,21.08h9l-6.19,31.11h-9Zm2.22-5.69a4.36,4.36,0,0,1-1.47-3.33,5,5,0,0,1,1.65-3.84,6.07,6.07,0,0,1,4.3-1.53A5.59,5.59,0,0,1,127.27,8a4.13,4.13,0,0,1,1.47,3.21,5.24,5.24,0,0,1-1.67,4,6.2,6.2,0,0,1-4.34,1.53A5.37,5.37,0,0,1,118.94,15.39Z"/><path class="cls-1" d="M164.12,21.08,159,47q-1.74,8.79-6.68,12.84t-13.21,4a31,31,0,0,1-8.29-1,19.32,19.32,0,0,1-6.51-3.06l4.28-6.53a13.56,13.56,0,0,0,4.77,2.45,20.81,20.81,0,0,0,6.16.9c3,0,5.36-.67,6.94-2a10.37,10.37,0,0,0,3.23-6l.23-1.33a13.39,13.39,0,0,1-9.48,3.47,15.17,15.17,0,0,1-7-1.59,12.16,12.16,0,0,1-4.94-4.54,12.84,12.84,0,0,1-1.83-6.93A16.89,16.89,0,0,1,128.91,29a16.44,16.44,0,0,1,6.21-6.12A17.56,17.56,0,0,1,144,20.62,14.21,14.21,0,0,1,150.39,22a8.89,8.89,0,0,1,4.13,4.19l1-5.09Zm-14.8,19.66a8.86,8.86,0,0,0,2.54-6.53A5.69,5.69,0,0,0,150,29.73a7.46,7.46,0,0,0-5.15-1.65,9,9,0,0,0-6.56,2.54,8.82,8.82,0,0,0-2.57,6.53,5.61,5.61,0,0,0,1.91,4.48,7.67,7.67,0,0,0,5.2,1.65A8.77,8.77,0,0,0,149.32,40.74Z"/><path class="cls-1" d="M196.91,23.4Q200,26.18,200,31.26a18,18,0,0,1-.4,3.7L196.1,52.19h-9l3.35-16.65a9.06,9.06,0,0,0,.23-2.14,4.87,4.87,0,0,0-1.33-3.7,5.54,5.54,0,0,0-4-1.27,8.42,8.42,0,0,0-5.75,2,10.41,10.41,0,0,0-3.09,6l-3.12,15.79h-9l8.55-42.9h9L179,23.92a14.58,14.58,0,0,1,9.6-3.3A11.87,11.87,0,0,1,196.91,23.4Z"/><path class="cls-1" d="M214.36,41.2a6,6,0,0,0-.11,1.27q0,3,3.29,3a7.16,7.16,0,0,0,3.65-1.1l1.33,6.42a14.65,14.65,0,0,1-7.75,1.85,10.36,10.36,0,0,1-7.05-2.31A8,8,0,0,1,205.06,44a14.59,14.59,0,0,1,.29-2.72l2.48-12.55H203l1.39-6.93h4.8l1.5-7.58h9l-1.5,7.58H226l-1.38,6.93h-7.75Z"/><path class="cls-2" d="M264.58,23.37c2,1.83,3.07,4.44,3.07,7.83a17.6,17.6,0,0,1-.41,3.76l-3.47,17.23h-9l3.36-16.65a9.62,9.62,0,0,0,.23-2.14A4.91,4.91,0,0,0,257,29.7a5.57,5.57,0,0,0-4-1.27,8.42,8.42,0,0,0-5.75,2,10.36,10.36,0,0,0-3.1,6l-3.12,15.79h-9l6.19-31.11h8.56l-.7,3.36a14.57,14.57,0,0,1,10.23-3.82A11.93,11.93,0,0,1,264.58,23.37Z"/><path class="cls-2" d="M277.83,50.91a12.89,12.89,0,0,1-5.5-4.88,13.69,13.69,0,0,1-1.93-7.31,17.88,17.88,0,0,1,2.42-9.25A17.49,17.49,0,0,1,279.53,23a19.58,19.58,0,0,1,9.66-2.37,18.44,18.44,0,0,1,8.26,1.74,13,13,0,0,1,5.47,4.88,13.69,13.69,0,0,1,1.93,7.31,18,18,0,0,1-2.4,9.25,17.19,17.19,0,0,1-6.7,6.48,19.75,19.75,0,0,1-9.69,2.37A18.49,18.49,0,0,1,277.83,50.91Zm13.49-7a8.8,8.8,0,0,0,3.24-3.61A11.76,11.76,0,0,0,295.72,35a6.8,6.8,0,0,0-1.85-5,7.06,7.06,0,0,0-5.2-1.85,8.75,8.75,0,0,0-4.75,1.3A8.85,8.85,0,0,0,280.69,33a11.76,11.76,0,0,0-1.16,5.32,6.74,6.74,0,0,0,1.88,5,7.15,7.15,0,0,0,5.23,1.85A8.59,8.59,0,0,0,291.32,43.89Z"/><path class="cls-2" d="M361.44,21.08,344.27,52.19h-8.9l-3.58-19.37-10.7,19.37H312.3l-5.49-31.11H315L318.43,42l11.68-20.93h7.75L341.38,42l11.56-20.93Z"/><path class="cls-2" d="M406.16,48.08c-.8-1.48-1.65-3.09-2.45-4.43-.14-.22-.51-.09-.85-.09-6.38,0-28.71,0-35.09,0-.55,0-1.09,0-1.64,0a2.29,2.29,0,0,1-2.27-2.36A2.25,2.25,0,0,1,366.22,39H396.6c1.83,0,3.66,0,5.48,0,.59,0,.79.21.8-.39,0-1.24.12-2.84.2-4.24h-3.2l-28.69,0a2.31,2.31,0,0,1-2.6-2.22c0-1.4,1-2.32,2.6-2.33,9.24,0,23.11,0,32.35,0,.75,0,.8.47,1.63-.85s1.92-2.38,3-3.65c-.29,0-.61,0-.93,0H377c-1.79,0-2.84-.86-2.84-2.29s1-2.27,2.83-2.28c13,0,33,0,46,0a31.22,31.22,0,0,1,14.22,3.61c1.54.77,3.09,1.56,4.67,2.26a11.19,11.19,0,0,0,2.47.75,3.22,3.22,0,0,0,3.59-1.44,3.16,3.16,0,0,0-.05-4,45.2,45.2,0,0,0-3.48-3.72c-2.63-2.56-5.18-5.18-6.37-8.78a24.11,24.11,0,0,1-.87-3.34c-.3-1.62.33-2.3,2-2.2a9.38,9.38,0,0,1,7,3.58,26.29,26.29,0,0,1,2.34,3.4,17.93,17.93,0,0,0,7.23,6.85c2.85,1.57,5.66,3.25,8.41,5a9.43,9.43,0,0,1,3.78,5c.47,1.33,1,2.65,1.36,4a4.06,4.06,0,0,1-3,5.25,25.38,25.38,0,0,1-3.9.51c-1.59.16-3.2.21-4.79.38A6.85,6.85,0,0,0,452.44,41a46.78,46.78,0,0,1-3,4.21c-2.62,3.06-6.11,4.93-9.66,6.68-.4.2-.81.39-1.21.57a1.42,1.42,0,0,1-.32,0c0-.38,0-.74.07-1.1.41-4.87.24-10.28-2.47-14.34-2.17-3.24-6.19-4.1-10.23-4.49,1.24.77,2.41,1.38,3.44,2.16A14.43,14.43,0,0,1,435,46.31c.08,2.52-.3,5-.47,7.57-.05.8-.13,1.6-.14,2.4,0,1.16.27,1.33,1.4,1.17,3.43-.49,6.84-1.07,10.29-1.38a93,93,0,0,1,9.3-.31A6.5,6.5,0,0,1,460.09,58c1.21,1.3,1.08,2.53-.34,3.6a4.8,4.8,0,0,1-4,.81q-3.12-.6-6.25-1a27.89,27.89,0,0,0-11.69,1.11c-1.67.47-3.35.88-5,1.28a3.08,3.08,0,0,1-4-2c-.11-.24-.23-.46-.33-.7a9.86,9.86,0,0,0-7.7-6.37c-2.63-.55-5.21-1.32-7.82-2a4.57,4.57,0,0,0-1.05-.06c-5.48,0-45.15,0-50.63,0a3.83,3.83,0,0,1-2.16-.77,1.89,1.89,0,0,1-.41-2.38,2.26,2.26,0,0,1,2.23-1.38h45.27Zm37.95-25.75c-.95-1-1.89-2.12-2.86-3.16-2.31-2.48-2.74-3.49-5.14-5.89a26.43,26.43,0,0,0-4.79-3.42,3.11,3.11,0,0,0-3.52.88,2.75,2.75,0,0,0-.41,3.21,8.39,8.39,0,0,0,4.16,4.59A48.68,48.68,0,0,0,441.5,22c.8.21,1.6.39,2.4.58ZM412,61.39c-1.41,0-2.06,1.56-1.94,3s.86,2.49,2.41,2.6a42.63,42.63,0,0,0,5.18,0c5.12-.71,6.73-3,6.91-3.43,1.09-2.59,0-3.5-2-4.14C422.39,59.45,419.7,61.49,412,61.39Zm49.2-36.61a2.87,2.87,0,1,0,1.51,3.77A2.88,2.88,0,0,0,461.17,24.78Z"/></g></svg>