<svg id="Layer_1" data-name="Layer 1" xmlns="http://www.w3.org/2000/svg" viewBox="0 0 390.89 70.87">
<defs>
<style>.cls-1{fill:#a71021;}.cls-2{fill:#2e303dea;}.cls-3{fill:#fff;}</style></defs>
<title>Do Rigth Now App Logo</title
><rect class="cls-1" x="232.28" y="10.07" width="150.96" height="55.07" rx="5.45" ry="5.45"/><path class="cls-2" d="M47,13,38.62,54.81H33.44l.73-3.67a14.2,14.2,0,0,1-4.71,3,15.82,15.82,0,0,1-5.83,1,14.61,14.61,0,0,1-6.82-1.55,11.29,11.29,0,0,1-4.68-4.48,13.52,13.52,0,0,1-1.69-6.88,18.62,18.62,0,0,1,2.19-9.08,16.14,16.14,0,0,1,6.06-6.26,16.89,16.89,0,0,1,8.66-2.25A14.79,14.79,0,0,1,34,26a9.27,9.27,0,0,1,4.2,4L41.55,13ZM30.81,48.81A11.12,11.12,0,0,0,35,44.32a14,14,0,0,0,1.49-6.54,8.17,8.17,0,0,0-2.31-6.2,9.23,9.23,0,0,0-6.6-2.2,11.17,11.17,0,0,0-10.14,6.09A13.72,13.72,0,0,0,15.9,42a8.14,8.14,0,0,0,2.34,6.18,9.17,9.17,0,0,0,6.57,2.22A11.42,11.42,0,0,0,30.81,48.81Z"/><path class="cls-2" d="M52.86,53.54A11.76,11.76,0,0,1,48,49a12.9,12.9,0,0,1-1.75-6.76,18,18,0,0,1,2.26-9,16.28,16.28,0,0,1,6.25-6.29,17.92,17.92,0,0,1,9-2.28,16.38,16.38,0,0,1,7.39,1.58A11.43,11.43,0,0,1,76,30.71a13.05,13.05,0,0,1,1.72,6.79,18.24,18.24,0,0,1-2.25,9,16.35,16.35,0,0,1-6.23,6.31,17.66,17.66,0,0,1-9,2.29A16.13,16.13,0,0,1,52.86,53.54Zm13.73-4.73a11.09,11.09,0,0,0,4.17-4.49,13.89,13.89,0,0,0,1.5-6.54,8.17,8.17,0,0,0-2.32-6.2,9.22,9.22,0,0,0-6.59-2.2A11.17,11.17,0,0,0,53.2,35.47,13.84,13.84,0,0,0,51.68,42,8.14,8.14,0,0,0,54,48.19a9.17,9.17,0,0,0,6.57,2.22A11.47,11.47,0,0,0,66.59,48.81Z"/><path class="cls-2" d="M110.08,25.78a19.24,19.24,0,0,1,7-1.13l-1,5.24a13.24,13.24,0,0,0-1.41-.05q-9.3,0-11.28,10l-3,14.94H95l5.92-29.88h5.19l-.85,4.45A11.46,11.46,0,0,1,110.08,25.78Z"/><path class="cls-2" d="M120.83,24.93h5.41l-5.92,29.88h-5.41Zm1.86-6.71a3.15,3.15,0,0,1-1-2.31,3.68,3.68,0,0,1,1.1-2.68,3.81,3.81,0,0,1,2.79-1.1,3.45,3.45,0,0,1,2.46.93,3,3,0,0,1,1,2.23,3.72,3.72,0,0,1-1.1,2.82,3.91,3.91,0,0,1-2.84,1.07A3.29,3.29,0,0,1,122.69,18.22Z"/><path class="cls-2" d="M162.35,24.93l-5.13,25.82q-1.58,8-5.95,11.67t-11.92,3.66A25.72,25.72,0,0,1,131.63,65a17.21,17.21,0,0,1-5.92-3.13l3-4.18a13.31,13.31,0,0,0,4.7,2.63,19.85,19.85,0,0,0,6.35,1q5.17,0,8-2.37c1.9-1.57,3.18-4,3.86-7.32l.45-2.15a15,15,0,0,1-10.82,4.12,15.69,15.69,0,0,1-7-1.47,10.72,10.72,0,0,1-4.68-4.22A12.37,12.37,0,0,1,128,41.39a17,17,0,0,1,2.17-8.51,15.68,15.68,0,0,1,6.06-6,17.55,17.55,0,0,1,8.8-2.2,15.33,15.33,0,0,1,6.79,1.44,9.15,9.15,0,0,1,4.37,4.31l1.07-5.47ZM148.4,47.34a10.72,10.72,0,0,0,4.17-4.17,12.2,12.2,0,0,0,1.49-6.06,7.18,7.18,0,0,0-2.33-5.67,9.65,9.65,0,0,0-6.57-2.06,12.16,12.16,0,0,0-6.06,1.5,10.52,10.52,0,0,0-4.17,4.17,12.09,12.09,0,0,0-1.5,6,7.19,7.19,0,0,0,2.37,5.73,9.65,9.65,0,0,0,6.54,2A12.2,12.2,0,0,0,148.4,47.34Z"/><path class="cls-2" d="M192.93,27.24a9.41,9.41,0,0,1,2.85,7.33,19.24,19.24,0,0,1-.34,3.5l-3.32,16.74H186.7L190,38.07a14,14,0,0,0,.28-2.48,5.74,5.74,0,0,0-1.75-4.51,7.45,7.45,0,0,0-5.18-1.58,10.92,10.92,0,0,0-7.25,2.39,12.16,12.16,0,0,0-3.8,7.13l-3.16,15.79h-5.41L172.1,13h5.42l-3.11,15.45q4-3.78,10.55-3.78Q190.09,24.65,192.93,27.24Z"/><path class="cls-2" d="M206.64,45.28a8.35,8.35,0,0,0-.17,1.58,3.67,3.67,0,0,0,1,2.76,4.07,4.07,0,0,0,3,1,7.07,7.07,0,0,0,4.28-1.41l1.13,4.12a12,12,0,0,1-6.94,1.86,8.14,8.14,0,0,1-5.72-2,7.11,7.11,0,0,1-2.17-5.5,11,11,0,0,1,.23-2.26l3.21-16h-5.07l.84-4.45h5.13l1.3-6.54h5.41l-1.3,6.54h8.57l-.9,4.45h-8.57Z"/><path class="cls-3" d="M278.32,27.41q3.46,3.39,3.47,10V54.81H273v-16q0-3.61-1.58-5.38a5.76,5.76,0,0,0-4.56-1.78,7,7,0,0,0-5.3,2.06q-2,2.05-2,6.11v15h-8.79V24.48h8.4V28a11.64,11.64,0,0,1,4.34-3,15.24,15.24,0,0,1,5.69-1A12.51,12.51,0,0,1,278.32,27.41Z"/><path class="cls-3" d="M293.34,53.26a14.89,14.89,0,0,1-5.95-5.55,15.31,15.31,0,0,1-2.14-8.07,15.3,15.3,0,0,1,2.14-8.06A14.89,14.89,0,0,1,293.34,26a19.4,19.4,0,0,1,17.16,0,14.94,14.94,0,0,1,5.92,5.55,15.3,15.3,0,0,1,2.14,8.06,15.31,15.31,0,0,1-2.14,8.07,14.94,14.94,0,0,1-5.92,5.55,19.4,19.4,0,0,1-17.16,0Zm14.15-7.5a8.54,8.54,0,0,0,2.17-6.12,8.53,8.53,0,0,0-2.17-6.11,7.34,7.34,0,0,0-5.56-2.28,7.43,7.43,0,0,0-5.58,2.28,8.46,8.46,0,0,0-2.2,6.11,8.47,8.47,0,0,0,2.2,6.12A7.43,7.43,0,0,0,301.93,48,7.34,7.34,0,0,0,307.49,45.76Z"/><path class="cls-3" d="M370.21,24.48l-11,30.33h-8.46L343.94,36l-7,18.83h-8.46L317.5,24.48h8.29L333,45l7.44-20.52h7.44L355.05,45l7.38-20.52Z"/></svg>