<svg id="Layer_1" data-name="Layer 1" xmlns="http://www.w3.org/2000/svg" viewBox="0 0 122.76 115.38"><defs><style>.cls-1{fill:#fff;}</style></defs><title>later</title><path class="cls-1" d="M56.73,12.88A41.94,41.94,0,0,1,98.48,51.83l8.2-8.31a4.35,4.35,0,0,1,6.15,6.15L96.32,66.28a3.92,3.92,0,0,1-3,1.3,4.27,4.27,0,0,1-3-1.3L73.77,49.77a4.35,4.35,0,0,1,6.15-6.14L90,53.77A33.31,33.31,0,1,0,75.5,82.57a4.34,4.34,0,0,1,5,7.12A42,42,0,1,1,56.73,12.88Z"/><path class="cls-1" d="M54,30.46a4.34,4.34,0,0,0-4.32,4.32V55a4,4,0,0,0,1.4,3l9.28,9.28a4.31,4.31,0,0,0,3.13,1.3,4.05,4.05,0,0,0,3-1.3,4.3,4.3,0,0,0-.1-6.15l-8.1-8V34.78A4.33,4.33,0,0,0,54,30.46Z"/></svg>