<svg id="Layer_1" data-name="Layer 1" xmlns="http://www.w3.org/2000/svg" viewBox="0 0 122.76 115.38"><defs><style>.cls-1{fill:#fff;}</style></defs><title>quick</title><path class="cls-1" d="M71.87,9.75a3.54,3.54,0,0,0-3.54,3.54,3.49,3.49,0,0,0,0,.44,3.12,3.12,0,0,0,0,.44v7.08a3.54,3.54,0,0,0,7.08,0V17a38.92,38.92,0,0,1,0,77.52V90.25a3.54,3.54,0,0,0-7.08,0v7.08a2.17,2.17,0,0,1,0,.88,3.54,3.54,0,0,0,3.54,3.54,46,46,0,0,0,0-92Z"/><path class="cls-1" d="M55.16,55.75a3.54,3.54,0,0,0-3.54-3.54H5.81a3.54,3.54,0,1,0,0,7.08H51.62A3.54,3.54,0,0,0,55.16,55.75Z"/><path class="cls-1" d="M52,30.09H14.37a3.54,3.54,0,0,0,0,7.08H52a3.54,3.54,0,0,0,0-7.08Z"/><path class="cls-1" d="M52,74.33H14.37a3.54,3.54,0,0,0,0,7.08H52a3.54,3.54,0,1,0,0-7.08Z"/><path class="cls-1" d="M74.63,61,97,42.08a3.56,3.56,0,0,0-4-5.83L67.34,50.47a7.41,7.41,0,0,0-1,.72A6.44,6.44,0,1,0,74.62,61Zm-6.56-3.27a3.54,3.54,0,1,1,4.93.9h0A3.55,3.55,0,0,1,68.07,57.76Z"/></svg>