<svg id="Layer_1" data-name="Layer 1" xmlns="http://www.w3.org/2000/svg" viewBox="0 0 144.97 115.38"><defs><style>.cls-1{fill:#fff;}</style></defs><title>turtle</title><path class="cls-1" d="M21,99.08a13.53,13.53,0,0,1-3.63-.51,14.63,14.63,0,0,1-8.25-5.91c-2.73-4.14-2.62-8.73.32-12.93l4.86-6.86-.54-.38a58.59,58.59,0,0,1-9-7.79A6.3,6.3,0,0,1,3.4,57.76a6,6,0,0,1,5.46-3.63,6.36,6.36,0,0,1,1.86.28l3.11.85L14,54.6c4.39-19.43,25.37-29.94,43-31.49,1.62-.14,3.29-.21,5-.21a56.87,56.87,0,0,1,25.78,6c8.46,4.39,14.5,10.86,17.46,18.72l.23.6L106,48a78.67,78.67,0,0,0,12.9-5.92,18.07,18.07,0,0,1,9-2.48,14.43,14.43,0,0,1,6.88,1.67c4.64,2.46,7.3,7.28,7.3,13.22,0,8.32-6.25,14.52-14.87,14.77a55,55,0,0,0-14.53,2.33,36.62,36.62,0,0,0-7.88,3.45l-.53.32,2,3.84a12.31,12.31,0,0,1-1,13.72,14.29,14.29,0,0,1-9.49,5.37,13.25,13.25,0,0,1-1.54.09h0a12.28,12.28,0,0,1-10.72-6.31L79.14,85,78.7,85A97.38,97.38,0,0,1,62,86.47a97.84,97.84,0,0,1-13-.86,93.26,93.26,0,0,1-10.4-2l-.43-.11-8.1,10.87A11.11,11.11,0,0,1,21,99.08ZM14,83a5.53,5.53,0,0,0-.2,6.53,9.14,9.14,0,0,0,5,3.56,7.48,7.48,0,0,0,2,.27A5.82,5.82,0,0,0,25.59,91l7.46-10L31,80.27A74.8,74.8,0,0,1,20.9,75.78l-1.28-.68Zm83.58-4.78a87.77,87.77,0,0,1-10.86,4.44l-1.94.65,3.52,5.79a6.91,6.91,0,0,0,6,3.58,7,7,0,0,0,.8,0,8.53,8.53,0,0,0,5.64-3.19,6.85,6.85,0,0,0,.52-7.63L99,77.54ZM8.68,60.86l3.12,2.85c11.71,10.7,30.65,17.08,50.65,17.08,1.59,0,3.16,0,4.7-.12,11.16-.61,21.47-3.16,29.82-7.38,1.85-.94,3.37-1.86,4.83-2.74A37.56,37.56,0,0,1,111,66.18a60.88,60.88,0,0,1,16.07-2.58c5.49-.15,9.32-3.89,9.32-9.1,0-3.88-1.47-6.71-4.27-8.2a8.94,8.94,0,0,0-4.24-1,12.57,12.57,0,0,0-6.13,1.7,80.73,80.73,0,0,1-17.08,7.45l-.35.11-.27.24C91.82,65.58,75,69.18,66,70.37a96.2,96.2,0,0,1-12.49.81c-14.81,0-28.07-3.45-37.33-9.7L12,59.57Zm31.91,4.68,2.47.29a90.81,90.81,0,0,0,10.76.64A88.16,88.16,0,0,0,75.77,63.7l2.08-.54L69.7,49H50.12ZM37.73,34.45C27.7,39.72,21,47.84,19.34,56.74l-.2,1.11,1,.59A52.55,52.55,0,0,0,35.54,64.5l1.17.26,10.17-17.6L39.12,33.72ZM72.94,47.16,81.51,62l1.29-.46a57.12,57.12,0,0,0,16.88-9.21l.87-.71-.36-1.07c-3.32-10-12.25-15.39-17.28-17.69l-1.35-.61ZM62.35,28.57c-1.61,0-3.25.07-4.88.22a53.79,53.79,0,0,0-13,2.76l-1.87.64,7.55,13.07H69.7L78,30.91l-2-.56A51.69,51.69,0,0,0,62.35,28.57Z"/><path class="cls-1" d="M128.22,57.57a3.55,3.55,0,1,0-3.85-3.23A3.55,3.55,0,0,0,128.22,57.57Z"/></svg>