<svg id="Layer_1" data-name="Layer 1" xmlns="http://www.w3.org/2000/svg" viewBox="0 0 63.1 62.63"><defs><style>.cls-1{fill:#ccc;}</style></defs><title>feedback</title><path class="cls-1" d="M32.34,1.2,30.55,3.87,16.34,25.2H1.55v36H44.17a11,11,0,0,0,10.21-6.91l6.26-15.66a12.7,12.7,0,0,0-7.08-16.52,12.57,12.57,0,0,0-4.92-.91h-4.4l.17-.66a38.71,38.71,0,0,0,1.14-9.34,10,10,0,0,0-10-10ZM7.55,55.2v-24h8v24Zm32-44a32.73,32.73,0,0,1-1,7.88l-2,8.12H48.64a6.9,6.9,0,0,1,5.79,3,6.76,6.76,0,0,1,.64,6.2L48.81,52.06a5,5,0,0,1-4.64,3.14H21.55v-27l14-21A4,4,0,0,1,39.55,11.2Z"/></svg>